<?xml version="1.0" encoding="utf-8"?>
<!-- Generator: Adobe Illustrator 26.2.1, SVG Export Plug-In . SVG Version: 6.00 Build 0)  -->
<svg version="1.1" xmlns="http://www.w3.org/2000/svg" xmlns:xlink="http://www.w3.org/1999/xlink" x="0px" y="0px"
	 width="1554.90637px" height="293.12px" viewBox="0 0 1554.90637 293.12" style="enable-background:new 0 0 1554.90637 293.12;"
	 xml:space="preserve">
<style type="text/css">
	.st0{fill:#417800;}
	.st1{fill:#025612;}
	.st2{fill:#87A101;}
</style>
<g id="Layer_1">
</g>
<g id="Layer_2">
	<g id="XMLID_298_">
		<g id="XMLID_201_">
			<g id="XMLID_00000004527062381480049560000001363990315660233350_">
				<polygon class="st0" points="1554.90637,158.37766 1554.90637,171.71054 1541.57361,171.71054 				"/>
				<polygon class="st1" points="1554.90637,231.80925 1554.90637,293.01898 1517.78662,292.98529 1541.57361,268.50815 
					1541.57361,244.94005 				"/>
				<polygon class="st2" points="1554.90637,135.48296 1554.90637,158.37766 1541.57361,171.71054 1517.06274,195.43011 
					1517.78662,219.46964 1492.75391,194.8578 				"/>
				<polygon class="st0" points="1554.90637,207.82028 1554.90637,231.80925 1541.57361,244.94005 1541.57361,268.50815 
					1518.00549,268.99631 1518.00549,219.68849 1517.78662,219.46964 1517.06274,195.43011 1541.99438,220.07565 				"/>
				<polygon class="st1" points="1554.90637,122.89088 1554.90637,135.48296 1492.75391,194.8578 1492.75391,147.3007 
					1515.48035,122.89088 				"/>
				<polygon class="st0" points="1554.90637,110.24825 1554.90637,122.89088 1515.48035,122.89088 1492.75391,147.3007 
					1492.75391,170.86882 1469.60669,146.87985 1492.75391,122.89088 1492.75391,98.48105 1517.1637,74.07121 				"/>
				<polygon class="st2" points="1554.90637,171.71054 1554.90637,207.82028 1541.99438,220.07565 1517.06274,195.43011 
					1541.57361,171.71054 				"/>
				<polygon class="st2" points="1541.56616,268.50815 1517.77917,292.98532 1493.79016,292.95166 1517.99805,268.99634 				"/>
				<polygon class="st1" points="1517.77917,219.46965 1517.99805,219.68849 1517.99805,268.99634 1493.79016,292.95166 
					1443.92676,293.00217 1443.92676,268.50815 1469.17834,244.94005 1469.17834,219.68849 1444.66748,194.8578 
					1469.17834,171.81155 1469.59924,146.87985 1492.74646,170.86882 1492.74646,194.8578 				"/>
				<polygon class="st2" points="1517.15625,74.07121 1492.74646,98.48105 1492.74646,122.89088 1469.59924,146.87985 
					1444.2467,146.87985 1469.17834,122.04916 1469.17834,98.48105 1493.16736,74.07121 				"/>
				<polygon class="st0" points="1444.2467,146.87985 1469.59924,146.87985 1469.17834,171.81155 1444.66748,194.8578 
					1469.17834,219.68849 1469.17834,244.94005 1443.92676,268.50815 1443.92676,293.00217 1346.92712,293.12 1346.92712,293.06949 
					1370.6637,270.99963 1370.69727,271.03333 1395.94885,271.03333 1444.66748,220.00835 1420.35864,196.9621 
					1420.35864,146.87985 				"/>
				<polygon class="st0" points="1419.51697,97.63933 1444.66748,122.89088 1419.51697,122.04916 1371.53906,169.18539 
					1370.71411,196.13721 1346.28748,171.71054 1322.29846,170.75099 1370.69727,122.04916 1395.3092,122.89088 				"/>
				<polygon class="st2" points="1444.66748,220.00835 1395.94885,271.03333 1370.69727,271.03333 1370.6637,270.99963 
					1371.53906,270.19159 1371.53906,219.68849 1395.10718,197.80382 1395.10718,171.81155 1420.35864,146.87985 
					1420.35864,196.9621 				"/>
				<polygon class="st1" points="1444.66748,122.89088 1420.35864,146.87985 1395.10718,171.81155 1395.10718,197.80382 
					1371.53906,219.68849 1371.53906,196.9621 1370.71411,196.13721 1371.53906,169.18539 1419.51697,122.04916 				"/>
				<polygon class="st1" points="1420.35864,25.25155 1420.35864,73.2295 1396.36975,97.63933 1395.94885,97.63933 
					1370.69727,97.63933 1322.71936,146.18965 1322.71936,121.20744 1369.85559,74.91293 1369.85559,49.67822 1370.69727,48.81966 
					1369.85559,48.81966 1395.94885,25.25155 1419.51697,25.25155 				"/>
				<polygon class="st0" points="1420.35864,24.40983 1420.35864,25.25155 1419.51697,25.25155 1395.94885,25.25155 
					1369.85559,48.81966 1346.28748,48.81966 1395.3092,0.42086 1395.3092,0 1395.94885,0 				"/>
				<polygon class="st2" points="1419.51697,97.63933 1395.3092,122.89088 1370.69727,122.04916 1322.29846,170.75099 
					1299.31958,169.84193 1321.62512,147.28387 1322.71936,147.3007 1322.71936,146.18965 1370.69727,97.63933 1395.94885,97.63933 
					1396.36975,97.63933 				"/>
				<polygon class="st2" points="1395.3092,0 1395.3092,0.42086 1346.28748,48.81966 1369.85559,48.81966 1369.85559,49.67822 
					1298.30957,122.89088 1272.21631,122.89088 1272.21631,97.95918 1271.91321,97.63933 1296.6261,97.63933 1322.71936,74.07121 
					1322.71936,47.97795 1371.11816,0 				"/>
				<polygon class="st1" points="1371.53906,219.68849 1371.53906,270.19159 1370.6637,270.99963 1346.92712,293.06949 
					1297.95605,293.00217 1322.29846,268.99634 1321.87769,245.78175 1297.88867,245.78175 1345.4458,196.9621 1370.69727,196.9621 
					1370.71411,196.13721 1371.53906,196.9621 				"/>
				<polygon class="st0" points="1370.71411,196.13721 1370.69727,196.9621 1345.4458,196.9621 1297.88867,245.78175 
					1321.87769,245.78175 1322.29846,268.99634 1297.95605,293.00217 1225.08008,292.918 1248.64819,268.50815 
					1248.64819,244.94005 1298.10754,194.8578 1273.89966,194.43694 1273.89966,170.48163 1274.32056,170.02711 
					1299.15125,170.02711 1299.31958,169.84193 1322.29846,170.75099 1346.28748,171.71054 				"/>
				<polygon class="st0" points="1369.85559,49.67822 1369.85559,74.91293 1322.71936,121.20744 1322.71936,146.18965 
					1321.62512,147.28387 1297.6698,146.87985 1273.89966,170.02711 1273.89966,170.48163 1249.06897,196.9621 
					1247.38562,170.86882 1272.21631,147.3007 1272.21631,122.89088 1298.30957,122.89088 				"/>
				<polygon class="st1" points="1299.31958,169.84193 1299.15125,170.02711 1274.32056,170.02711 1273.89966,170.48163 
					1273.89966,170.02711 1297.6698,146.87985 1321.62512,147.28387 				"/>
				<polygon class="st2" points="1298.10754,194.8578 1248.64819,244.94005 1248.64819,268.50815 1225.08008,292.918 
					1201.51196,269.34988 1225.08008,245.3609 1225.08008,219.68849 1249.06897,196.9621 1273.89966,170.48163 
					1273.89966,194.43694 				"/>
				<polygon class="st1" points="1272.21631,122.89088 1272.21631,147.3007 1247.38562,170.86882 1249.06897,196.9621 
					1225.08008,219.68849 1201.51196,194.8578 1225.08008,169.18539 1225.08008,121.20744 1248.64819,98.48105 1248.64819,74.91293 
					1248.64819,74.07121 1249.48987,74.07121 1271.91321,97.63933 1272.21631,97.95918 				"/>
				<polygon class="st0" points="1248.64819,74.91293 1248.64819,98.48105 1225.08008,121.20744 1225.08008,169.18539 
					1201.51196,194.8578 1201.51196,170.86882 1199.82849,169.18539 1199.82849,120.36572 1225.08008,96.79761 1225.08008,74.91293 
					1224.65918,74.47524 1225.08008,74.07121 1248.64819,74.07121 				"/>
				<polygon class="st1" points="1225.08008,219.68849 1225.08008,245.3609 1201.51196,269.34988 1176.0752,268.10413 
					1200.46814,245.46191 1174.5769,219.68849 1174.5769,196.54123 1199.82849,170.86882 1199.82849,169.18539 
					1201.51196,170.86882 1201.51196,194.8578 				"/>
				<polygon class="st2" points="1225.08008,74.91293 1225.08008,96.79761 1199.82849,120.36572 1199.82849,169.18539 
					1151.85059,121.20744 1174.5769,97.63933 1200.67017,97.63933 1224.65918,74.47524 				"/>
				<polygon class="st0" points="1176.0752,268.10413 1201.51196,269.34988 1225.08008,292.918 1127.0199,293.06949 
					1102.18921,268.50815 1102.18921,244.94005 1101.97034,244.70436 1102.60999,244.09833 1128.43396,244.72119 
					1154.37573,245.3609 1175.83948,268.08731 				"/>
				<polygon class="st0" points="1151.83374,121.20744 1151.85059,121.20744 1199.82849,169.18539 1199.82849,170.86882 
					1174.5769,196.54123 1174.5769,219.68849 1200.46814,245.46191 1176.0752,268.10413 1175.83948,268.08731 1154.37573,245.3609 
					1128.43396,244.72119 1151.10986,219.8905 1125.75732,194.01608 1125.75732,122.04916 1125.53845,121.81348 
					1126.1781,121.20744 				"/>
				<polygon class="st2" points="1125.75732,194.01608 1151.10986,219.8905 1128.43396,244.72119 1102.60999,244.09833 
					1101.97034,244.70436 1076.93762,268.50815 1076.93762,292.918 945.20868,292.918 1125.53845,121.81348 1125.75732,122.04916 
									"/>
				<polygon class="st2" points="1127.0199,293.06949 1102.18921,293.00217 1102.18921,292.918 1076.93762,268.50815 
					1101.97034,244.70436 1102.18921,244.94005 1102.18921,268.50815 				"/>
				<polygon class="st1" points="1102.18921,292.918 1102.18921,293.00217 1076.93762,292.918 1076.93762,268.50815 				"/>
			</g>
		</g>
		<g id="XMLID_33_">
			<g id="XMLID_00000181086403855991699800000004387904442614659460_">
				<polygon class="st0" points="1075.44678,120.36572 1125.94983,172.06407 1101.11914,170.93616 1075.44678,146.87985 				"/>
				<polygon class="st1" points="1125.94983,172.06407 1099.85657,195.88469 1101.11914,220.07568 1027.46875,292.918 
					1003.05896,292.918 1051.87866,244.94005 1051.87866,220.07568 1101.11914,170.93616 				"/>
				<polygon class="st0" points="1101.11914,170.93616 1051.87866,220.07568 1051.87866,244.94005 1003.05896,292.918 
					1002.21729,269.34988 1027.46875,245.78175 1004.74243,222.66817 1004.74243,196.9621 1027.46875,196.9621 
					1075.44678,146.87985 				"/>
				<polygon class="st2" points="1075.44678,120.36572 1075.44678,146.87985 1027.46875,196.9621 1004.74243,196.9621 
					1004.74243,222.66817 978.31244,195.76686 1027.46875,146.20648 1051.87866,122.04916 				"/>
				<polygon class="st0" points="1075.44678,97.63933 1075.44678,120.36572 1051.87866,122.04916 1027.46875,146.20648 
					1003.05896,146.87985 978.69965,170.93616 978.31244,195.76686 954.66016,171.71054 1002.23407,122.89088 1027.46875,122.89088 
					1051.87866,98.48105 1051.87866,74.91293 1051.87866,74.07121 1052.72034,74.07121 				"/>
				<polygon class="st2" points="1051.87866,74.91293 1051.87866,98.48105 1027.46875,122.89088 1002.23407,122.89088 
					1003.05896,122.04916 1003.05896,97.23531 1027.04797,74.07121 1051.87866,74.07121 				"/>
				<polygon class="st1" points="1027.46875,146.20648 978.31244,195.76686 978.69965,170.93616 1003.05896,146.87985 				"/>
				<polygon class="st0" points="1004.74243,222.66817 1027.46875,245.78175 978.69965,245.78175 929.13928,196.5244 
					929.40863,172.13141 929.37494,172.09773 929.82947,171.71054 954.66016,171.71054 978.31244,195.76686 				"/>
				<polygon class="st1" points="1027.46875,245.78175 1002.21729,269.34988 1003.05896,292.918 952.55585,292.918 
					952.55585,268.99634 952.35388,268.7775 978.69965,245.78175 				"/>
				<polygon class="st1" points="1003.05896,97.23531 1003.05896,122.04916 1002.23407,122.89088 954.66016,171.71054 
					929.82947,171.71054 929.37494,172.09773 903.01233,195.17766 879.52838,172.06407 879.52838,171.71054 879.74725,171.71054 
					903.73621,147.3007 903.73621,124.99518 953.81842,74.07121 1002.21729,74.07121 1002.63812,73.65035 1003.05896,74.07121 				
					"/>
				<polygon class="st0" points="953.39758,23.56811 1002.63812,73.65035 1002.21729,74.07121 953.81842,74.07121 
					903.73621,124.99518 903.73621,97.63933 904.05609,97.63933 954.66016,48.81966 929.82947,48.81966 929.40863,23.56811 				"/>
				<polygon class="st1" points="978.69965,245.78175 952.35388,268.7775 929.82947,244.09833 903.73621,244.09833 
					903.73621,222.21364 929.13928,196.5244 				"/>
				<polygon class="st2" points="954.66016,48.81966 904.05609,97.63933 903.73621,97.63933 880.16809,72.7918 929.40863,23.56811 
					929.82947,48.81966 				"/>
				<polygon class="st1" points="952.55585,268.99634 952.55585,292.918 881.3465,292.918 903.31537,269.34988 951.71417,269.34988 
					952.35388,268.7775 				"/>
				<polygon class="st0" points="952.35388,268.7775 951.71417,269.34988 903.31537,269.34988 879.32635,244.09833 
					902.89447,244.09833 903.73621,244.09833 929.82947,244.09833 				"/>
				<polygon class="st2" points="929.40863,172.13141 929.13928,196.5244 903.73621,222.21364 903.73621,195.88469 
					903.01233,195.17766 929.37494,172.09773 				"/>
				<polygon class="st1" points="903.73621,222.21364 903.73621,244.09833 902.89447,244.09833 879.32635,244.09833 
					833.03186,292.918 832.19012,292.918 831.44946,268.84485 856.59998,244.51918 856.59998,219.68849 880.16809,195.27866 
					902.89447,195.27866 903.01233,195.17766 903.73621,195.88469 				"/>
				<polygon class="st0" points="903.73621,124.99518 903.73621,147.3007 856.17914,146.87985 831.34845,122.04916 
					781.68707,171.71054 757.27722,171.71054 831.34845,97.63933 830.92755,48.81966 857.44171,48.81966 880.16809,72.7918 
					903.73621,97.63933 				"/>
				<polygon class="st1" points="903.73621,147.3007 879.74725,171.71054 879.52838,171.71054 854.07483,171.71054 
					853.23309,172.55226 853.23309,172.56909 831.34845,194.8578 831.34845,219.68849 781.68707,171.71054 831.34845,122.04916 
					856.17914,146.87985 				"/>
				<polygon class="st2" points="879.32635,244.09833 903.31537,269.34988 881.3465,292.918 833.03186,292.918 				"/>
				<polygon class="st0" points="879.52838,172.06407 903.01233,195.17766 902.89447,195.27866 880.16809,195.27866 
					856.59998,219.68849 856.59998,244.51918 831.34845,244.94005 831.34845,219.68849 853.23309,196.12038 853.23309,172.56909 
					853.23309,172.55226 854.07483,171.71054 879.52838,171.71054 				"/>
				<polygon class="st2" points="856.59998,244.51918 831.44946,268.84485 808.48737,267.80112 831.34845,244.94005 				"/>
				<polygon class="st2" points="853.23309,172.56909 853.23309,196.12038 831.34845,219.68849 831.34845,194.8578 				"/>
				<polygon class="st0" points="831.44946,268.84485 832.19012,292.918 808.62201,292.918 808.20117,268.08731 
					808.48737,267.80112 				"/>
				<polygon class="st1" points="808.48737,267.80112 808.20117,268.08731 808.62201,292.918 808.62201,293.06949 
					733.49023,292.98532 757.27722,268.50815 757.27722,244.94005 782.05737,220.53021 805.25519,220.53021 782.05737,196.9621 
					781.68707,171.71054 831.34845,219.68849 831.34845,244.94005 				"/>
				<polygon class="st2" points="830.92755,48.81966 831.34845,97.63933 757.27722,171.71054 732.76636,195.43016 
					733.49023,219.46965 708.45758,194.8578 783.79132,122.89088 783.37048,122.48685 783.79132,96.15791 				"/>
				<polygon class="st0" points="782.05737,196.9621 805.25519,220.53021 782.05737,220.53021 757.27722,244.94005 
					757.27722,268.50815 733.70911,268.99634 733.70911,219.68849 733.49023,219.46965 732.76636,195.43016 757.69806,220.07568 
									"/>
				<polygon class="st1" points="783.79132,122.89088 708.45758,194.8578 708.45758,170.86882 708.45758,147.3007 
					731.18396,122.89088 783.37048,122.89088 783.37048,122.48685 				"/>
				<polygon class="st0" points="783.37048,122.48685 783.37048,122.89088 731.18396,122.89088 708.45758,147.3007 
					708.45758,170.86882 685.3103,146.87985 708.45758,122.89088 708.45758,98.48105 732.86737,74.07121 				"/>
				<polygon class="st2" points="781.68707,171.71054 782.05737,196.9621 757.69806,220.07568 732.76636,195.43016 
					757.27722,171.71054 				"/>
				<polygon class="st2" points="757.27722,268.50815 733.49023,292.98532 709.50128,292.95166 733.70911,268.99634 				"/>
				<polygon class="st1" points="733.49023,219.46965 733.70911,219.68849 733.70911,268.99634 709.50128,292.95166 
					659.63788,293.00217 659.63788,268.50815 684.88947,244.94005 684.88947,219.68849 660.3786,194.8578 684.88947,171.81155 
					685.3103,146.87985 708.45758,170.86882 708.45758,194.8578 				"/>
				<polygon class="st2" points="732.86737,74.07121 708.45758,98.48105 708.45758,122.89088 685.3103,146.87985 
					659.95776,146.87985 684.88947,122.04916 684.88947,98.48105 708.87842,74.07121 				"/>
				<polygon class="st0" points="659.95776,146.87985 685.3103,146.87985 684.88947,171.81155 660.3786,194.8578 
					684.88947,219.68849 684.88947,244.94005 659.63788,268.50815 659.63788,293.00217 562.63824,293.12 562.63824,293.06949 
					586.37469,270.99963 586.40839,271.03333 611.65991,271.03333 660.3786,220.00835 636.06976,196.9621 636.06976,146.87985 				
					"/>
				<polygon class="st0" points="635.22803,97.63933 660.3786,122.89088 635.22803,122.04916 587.25012,169.18539 
					586.42523,196.13721 561.99854,171.71054 538.00958,170.75099 586.40839,122.04916 611.02026,122.89088 				"/>
				<polygon class="st2" points="660.3786,220.00835 611.65991,271.03333 586.40839,271.03333 586.37469,270.99963 
					587.25012,270.19159 587.25012,219.68849 610.81824,197.80382 610.81824,171.81155 636.06976,146.87985 636.06976,196.9621 				
					"/>
				<polygon class="st1" points="660.3786,122.89088 636.06976,146.87985 610.81824,171.81155 610.81824,197.80382 
					587.25012,219.68849 587.25012,196.9621 586.42523,196.13721 587.25012,169.18539 635.22803,122.04916 				"/>
				<polygon class="st1" points="636.06976,25.25155 636.06976,73.2295 612.08081,97.63933 611.65991,97.63933 586.40839,97.63933 
					538.43042,146.18965 538.43042,121.20744 585.56665,74.91293 585.56665,49.67822 586.40839,48.81966 585.56665,48.81966 
					611.65991,25.25155 635.22803,25.25155 				"/>
				<polygon class="st0" points="636.06976,24.40983 636.06976,25.25155 635.22803,25.25155 611.65991,25.25155 585.56665,48.81966 
					561.99854,48.81966 611.02026,0.42086 611.02026,0 611.65991,0 				"/>
				<polygon class="st2" points="635.22803,97.63933 611.02026,122.89088 586.40839,122.04916 538.00958,170.75099 
					515.0307,169.84193 537.33618,147.28387 538.43042,147.3007 538.43042,146.18965 586.40839,97.63933 611.65991,97.63933 
					612.08081,97.63933 				"/>
				<polygon class="st2" points="611.02026,0 611.02026,0.42086 561.99854,48.81966 585.56665,48.81966 585.56665,49.67822 
					514.02063,122.89088 487.92734,122.89088 487.92734,97.95918 487.62433,97.63933 512.33716,97.63933 538.43042,74.07121 
					538.43042,47.97795 586.82922,0 				"/>
				<polygon class="st1" points="587.25012,219.68849 587.25012,270.19159 586.37469,270.99963 562.63824,293.06949 
					513.66711,293.00217 538.00958,268.99634 537.58875,245.78175 513.59973,245.78175 561.15686,196.9621 586.40839,196.9621 
					586.42523,196.13721 587.25012,196.9621 				"/>
				<polygon class="st0" points="586.42523,196.13721 586.40839,196.9621 561.15686,196.9621 513.59973,245.78175 
					537.58875,245.78175 538.00958,268.99634 513.66711,293.00217 440.79111,292.918 464.35922,268.50815 464.35922,244.94005 
					513.8186,194.8578 489.61078,194.43694 489.61078,170.48163 490.03165,170.02711 514.8623,170.02711 515.0307,169.84193 
					538.00958,170.75099 561.99854,171.71054 				"/>
				<polygon class="st0" points="585.56665,49.67822 585.56665,74.91293 538.43042,121.20744 538.43042,146.18965 
					537.33618,147.28387 513.38092,146.87985 489.61078,170.02711 489.61078,170.48163 464.78009,196.9621 463.09665,170.86882 
					487.92734,147.3007 487.92734,122.89088 514.02063,122.89088 				"/>
				<polygon class="st1" points="515.0307,169.84193 514.8623,170.02711 490.03165,170.02711 489.61078,170.48163 
					489.61078,170.02711 513.38092,146.87985 537.33618,147.28387 				"/>
				<polygon class="st2" points="513.8186,194.8578 464.35922,244.94005 464.35922,268.50815 440.79111,292.918 
					417.22299,269.34988 440.79111,245.3609 440.79111,219.68849 464.78009,196.9621 489.61078,170.48163 489.61078,194.43694 				
					"/>
				<polygon class="st1" points="487.92734,122.89088 487.92734,147.3007 463.09665,170.86882 464.78009,196.9621 
					440.79111,219.68849 417.22299,194.8578 440.79111,169.18539 440.79111,121.20744 464.35922,98.48105 464.35922,74.91293 
					464.35922,74.07121 465.20096,74.07121 487.62433,97.63933 487.92734,97.95918 				"/>
				<polygon class="st0" points="464.35922,74.91293 464.35922,98.48105 440.79111,121.20744 440.79111,169.18539 
					417.22299,194.8578 417.22299,170.86882 415.53955,169.18539 415.53955,120.36572 440.79111,96.79761 440.79111,74.91293 
					440.37024,74.47524 440.79111,74.07121 464.35922,74.07121 				"/>
				<polygon class="st1" points="440.79111,219.68849 440.79111,245.3609 417.22299,269.34988 391.78629,268.10413 
					416.17926,245.46191 390.28802,219.68849 390.28802,196.54123 415.53955,170.86882 415.53955,169.18539 417.22299,170.86882 
					417.22299,194.8578 				"/>
				<polygon class="st2" points="440.79111,74.91293 440.79111,96.79761 415.53955,120.36572 415.53955,169.18539 
					367.56161,121.20744 390.28802,97.63933 416.38129,97.63933 440.37024,74.47524 				"/>
				<polygon class="st0" points="391.78629,268.10413 417.22299,269.34988 440.79111,292.918 342.73093,293.06949 
					317.90024,268.50815 317.90024,244.94005 317.6814,244.70436 318.32111,244.09833 344.14502,244.72119 370.08676,245.3609 
					391.5506,268.08731 				"/>
				<polygon class="st0" points="367.54477,121.20744 367.56161,121.20744 415.53955,169.18539 415.53955,170.86882 
					390.28802,196.54123 390.28802,219.68849 416.17926,245.46191 391.78629,268.10413 391.5506,268.08731 370.08676,245.3609 
					344.14502,244.72119 366.82089,219.8905 341.46835,194.01608 341.46835,122.04916 341.24951,121.81348 341.88922,121.20744 				
					"/>
				<polygon class="st2" points="341.46835,194.01608 366.82089,219.8905 344.14502,244.72119 318.32111,244.09833 
					317.6814,244.70436 292.64868,268.50815 292.64868,292.918 160.91975,292.918 341.24951,121.81348 341.46835,122.04916 				"/>
				<polygon class="st2" points="342.73093,293.06949 317.90024,293.00217 317.90024,292.918 292.64868,268.50815 
					317.6814,244.70436 317.90024,244.94005 317.90024,268.50815 				"/>
				<polygon class="st1" points="317.90024,292.918 317.90024,293.00217 292.64868,292.918 292.64868,268.50815 				"/>
			</g>
		</g>
		<g id="XMLID_103_">
			<g id="XMLID_00000109026499769368845930000017968252092032084634_">
				<polygon class="st0" points="294.33212,120.36572 344.83524,172.06407 320.00452,170.93616 294.33212,146.87985 				"/>
				<polygon class="st1" points="344.83524,172.06407 318.74194,195.88469 320.00452,220.07568 246.35417,292.918 
					221.94434,292.918 270.76401,244.94005 270.76401,220.07568 320.00452,170.93616 				"/>
				<polygon class="st0" points="320.00452,170.93616 270.76401,220.07568 270.76401,244.94005 221.94434,292.918 
					221.10262,269.34988 246.35417,245.78175 223.62778,222.66817 223.62778,196.9621 246.35417,196.9621 294.33212,146.87985 				
					"/>
				<polygon class="st2" points="294.33212,120.36572 294.33212,146.87985 246.35417,196.9621 223.62778,196.9621 
					223.62778,222.66817 197.19781,195.76686 246.35417,146.20648 270.76401,122.04916 				"/>
				<polygon class="st0" points="294.33212,97.63933 294.33212,120.36572 270.76401,122.04916 246.35417,146.20648 
					221.94434,146.87985 197.58501,170.93616 197.19781,195.76686 173.54553,171.71054 221.11946,122.89088 246.35417,122.89088 
					270.76401,98.48105 270.76401,74.91293 270.76401,74.07121 271.60571,74.07121 				"/>
				<polygon class="st2" points="270.76401,74.91293 270.76401,98.48105 246.35417,122.89088 221.11946,122.89088 
					221.94434,122.04916 221.94434,97.23531 245.93332,74.07121 270.76401,74.07121 				"/>
				<polygon class="st1" points="246.35417,146.20648 197.19781,195.76686 197.58501,170.93616 221.94434,146.87985 				"/>
				<polygon class="st0" points="223.62778,222.66817 246.35417,245.78175 197.58501,245.78175 148.02463,196.5244 
					148.29399,172.13141 148.26031,172.09773 148.71484,171.71054 173.54553,171.71054 197.19781,195.76686 				"/>
				<polygon class="st1" points="246.35417,245.78175 221.10262,269.34988 221.94434,292.918 171.44124,292.918 
					171.44124,268.99634 171.23923,268.7775 197.58501,245.78175 				"/>
				<polygon class="st1" points="221.94434,97.23531 221.94434,122.04916 221.11946,122.89088 173.54553,171.71054 
					148.71484,171.71054 148.26031,172.09773 121.8977,195.17766 98.41376,172.06407 98.41376,171.71054 98.6326,171.71054 
					122.62157,147.3007 122.62157,124.99518 172.70381,74.07121 221.10262,74.07121 221.52348,73.65035 221.94434,74.07121 				"/>
				<polygon class="st0" points="172.28296,23.56811 221.52348,73.65035 221.10262,74.07121 172.70381,74.07121 
					122.62157,124.99518 122.62157,97.63933 122.94143,97.63933 173.54553,48.81966 148.71484,48.81966 148.29399,23.56811 				"/>
				<polygon class="st1" points="197.58501,245.78175 171.23923,268.7775 148.71484,244.09833 122.62157,244.09833 
					122.62157,222.21364 148.02463,196.5244 				"/>
				<polygon class="st2" points="173.54553,48.81966 122.94143,97.63933 122.62157,97.63933 99.05346,72.7918 148.29399,23.56811 
					148.71484,48.81966 				"/>
				<polygon class="st1" points="171.44124,268.99634 171.44124,292.918 100.23186,292.918 122.20071,269.34988 
					170.59952,269.34988 171.23923,268.7775 				"/>
				<polygon class="st0" points="171.23923,268.7775 170.59952,269.34988 122.20071,269.34988 98.21175,244.09833 
					121.77985,244.09833 122.62157,244.09833 148.71484,244.09833 				"/>
				<polygon class="st2" points="148.29399,172.13141 148.02463,196.5244 122.62157,222.21364 122.62157,195.88469 
					121.8977,195.17766 148.26031,172.09773 				"/>
				<polygon class="st1" points="122.62157,222.21364 122.62157,244.09833 121.77985,244.09833 98.21175,244.09833 
					51.91723,292.918 51.07552,292.918 50.3348,268.84485 75.48534,244.51918 75.48534,219.68849 99.05346,195.27866 
					121.77985,195.27866 121.8977,195.17766 122.62157,195.88469 				"/>
				<polygon class="st0" points="122.62157,97.63933 122.62157,147.3007 75.06449,146.87985 50.2338,122.04916 0.57241,171.71054 
					0,171.71054 0,147.87302 50.2338,97.63933 49.81294,48.81966 76.32706,48.81966 99.05346,72.79179 				"/>
				<polygon class="st1" points="122.62157,147.3007 98.6326,171.71054 98.41376,171.71054 72.96019,171.71054 72.11848,172.55226 
					72.11848,172.56909 50.2338,194.8578 50.2338,219.68849 0.57241,171.71054 50.2338,122.04916 75.06449,146.87985 				"/>
				<polygon class="st2" points="98.21175,244.09833 122.20071,269.34988 100.23186,292.918 51.91723,292.918 				"/>
				<polygon class="st0" points="98.41376,172.06407 121.8977,195.17766 121.77985,195.27866 99.05346,195.27866 
					75.48534,219.68849 75.48534,244.51918 50.2338,244.94005 50.2338,219.68849 72.11848,196.12038 72.11848,172.56909 
					72.11848,172.55226 72.96019,171.71054 98.41376,171.71054 				"/>
				<polygon class="st2" points="75.48534,244.51918 50.3348,268.84485 27.37273,267.80112 50.2338,244.94005 				"/>
				<polygon class="st2" points="72.11848,172.56909 72.11848,196.12038 50.2338,219.68849 50.2338,194.8578 				"/>
				<polygon class="st0" points="50.3348,268.84485 51.07552,292.918 27.5074,292.918 27.08654,268.08731 27.37273,267.80112 				
					"/>
				<polygon class="st1" points="27.3727,267.80103 27.08654,268.08731 27.5074,292.918 27.5074,293.06943 0,293.03583 0,221.45609 
					0.94272,220.53021 24.14053,220.53021 0.94272,196.9621 0.57241,171.71054 50.2338,219.68849 50.2338,244.94005 				"/>
				<polygon class="st2" points="50.2338,97.63933 0,147.87302 0,125.44963 2.67671,122.89088 2.25585,122.48687 2.67671,96.1579 
					49.81294,48.81966 				"/>
				<polygon class="st0" points="24.14053,220.53021 0.94272,220.53021 0,221.45609 0,197.85426 0.94272,196.9621 				"/>
				<polygon class="st1" points="2.67671,122.89088 0,125.44963 0,122.89088 2.25585,122.89088 2.25585,122.48687 				"/>
				<polygon class="st0" points="2.25585,122.48687 2.25585,122.89088 0,122.89088 0,120.33202 				"/>
				<polygon class="st2" points="0.94272,196.9621 0,197.85426 0,171.71054 0.57241,171.71054 				"/>
			</g>
		</g>
	</g>
</g>
</svg>
